# xmcd
#
# Track frame offsets: 
#        150
#        10679
#        19297
#        29588
#        40021
#        53406
#        65550
#        76761
#        86067
#        95514
#        106711
#
# Disc length: 1634 seconds
#
# Revision: 0
# Processed by: cddbd v1.4PL0 Copyright (c) Steve Scherf et al.
# Submitted via: ExactAudioCopy v0.90b4
#
DISCID=7806600b
DTITLE=Ronnie Milsap - Wish You Were Here (The Collection)
DYEAR=1900
DGENRE=Country
TTITLE0=Lonely Weekends
TTITLE1=Another Love Has Ended
TTITLE2=Don't Forget About Me
TTITLE3=Not For The Love Of You
TTITLE4=Plain And Simple
TTITLE5=It Went To Your Head
TTITLE6=Hello Mary Ann
TTITLE7=Ain't No Soul Left In These Old Shoes
TTITLE8=Wish You Were Here
TTITLE9=Total Disaster
TTITLE10=Your Tears Leave Me Cold
EXTD=
EXTT0=
EXTT1=
EXTT2=
EXTT3=
EXTT4=
EXTT5=
EXTT6=
EXTT7=
EXTT8=
EXTT9=
EXTT10=
PLAYORDER=
